<svg xmlns="http://www.w3.org/2000/svg" xmlns:xlink="http://www.w3.org/1999/xlink" width="55.491" height="55.492" viewBox="0 0 55.491 55.492"><defs><style>.a{fill:url(#a);}.b{fill:none;}.c{fill:#fff;}</style><linearGradient id="a" x1="0.5" x2="0.5" y2="1" gradientUnits="objectBoundingBox"><stop offset="0" stop-color="#5aaabe"/><stop offset="1" stop-color="#5cbe5a"/></linearGradient></defs><g transform="translate(-0.008 0)"><path class="a" d="M58.117,21.429l-6.8-3.026-3.028-6.8-7.4.773L34.862,8l-6.026,4.368-7.4-.773-3.026,6.8-6.8,3.029.774,7.4L8.012,34.854l4.368,6.026-.774,7.4,6.8,3.026,3.029,6.8,7.4-.773L34.862,61.7l6.026-4.368,7.4.773,3.026-6.8,6.8-3.028-.774-7.4,4.368-6.022-4.368-6.026ZM29.492,45.594l-7.6-7.6,2.533-2.524,5.066,5.057L44.68,25.34l2.533,2.532Zm0,0" transform="translate(-7.109 -7.108)"/><g transform="translate(0.008 0)"><path class="b" d="M55.328,27.221l-4.167-5.749.739-7.06a.9.9,0,0,0-.527-.911l-6.487-2.886L42,4.127a.9.9,0,0,0-.911-.527l-7.062.738L28.278.171a.9.9,0,0,0-1.051,0L21.479,4.338,14.418,3.6a.907.907,0,0,0-.911.526L10.62,10.613,4.133,13.5a.9.9,0,0,0-.526.91l.738,7.061L.178,27.221a.9.9,0,0,0,0,1.051L4.345,34.02l-.738,7.062a.9.9,0,0,0,.526.911l6.487,2.886,2.886,6.487a.9.9,0,0,0,.911.527l7.061-.739,5.749,4.167a.9.9,0,0,0,1.051,0l5.748-4.167,7.062.739A.9.9,0,0,0,42,51.367l2.886-6.487,6.487-2.887a.9.9,0,0,0,.527-.91l-.739-7.062,4.167-5.748a.9.9,0,0,0,0-1.051Zm-5.818,6.026a.893.893,0,0,0-.166.618l.705,6.755-6.207,2.763a.888.888,0,0,0-.455.454l-2.761,6.207-6.757-.706a.893.893,0,0,0-.618.167l-5.5,3.986-5.5-3.986a.885.885,0,0,0-.524-.171.583.583,0,0,0-.09,0l-6.758.706L12.12,43.837a.894.894,0,0,0-.454-.455L5.455,40.62l.705-6.755a.9.9,0,0,0-.166-.618l-3.986-5.5,3.986-5.5a.9.9,0,0,0,.166-.618l-.705-6.756,6.207-2.763a.887.887,0,0,0,.454-.454l2.761-6.207,6.758.706a.9.9,0,0,0,.617-.167L27.753,2l5.5,3.986a.9.9,0,0,0,.617.167l6.757-.706,2.761,6.207a.894.894,0,0,0,.455.454l6.207,2.762-.705,6.756a.893.893,0,0,0,.166.618l3.986,5.5Zm0,0" transform="translate(-0.008 0)"/><path class="c" d="M148.376,155.227a.9.9,0,0,0-1.266,0l-14.555,14.555-4.433-4.425a.9.9,0,0,0-1.264,0l-2.537,2.522a.895.895,0,0,0,0,1.267l7.6,7.6a.9.9,0,0,0,1.266,0l17.721-17.721a.9.9,0,0,0,0-1.266Zm-15.821,19.621-6.332-6.332,1.266-1.263,4.435,4.426a.9.9,0,0,0,1.265,0l14.555-14.554,1.267,1.267Zm0,0" transform="translate(-110.18 -137.629)"/></g></g></svg>